<svg xmlns="http://www.w3.org/2000/svg" width="94" height="94" viewBox="0 0 94 94">
    <defs>
        <linearGradient id="0x77t3ryaa" x1=".286" y1=".176" x2=".713" y2=".862" gradientUnits="objectBoundingBox">
            <stop offset="0" stop-color="#76eb8f"/>
            <stop offset="1" stop-color="#a88afb"/>
        </linearGradient>
    </defs>
    <g data-name="Group 379">
        <g data-name="Group 48" transform="translate(.5 .5)">
            <rect data-name="Rectangle 18" width="93" height="93" rx="28" style="fill:url(#0x77t3ryaa);stroke:transparent;stroke-miterlimit:10;opacity:.206"/>
        </g>
        <path data-name="Path 12366" d="m162.416 60.62-3.675-5.512a5.9 5.9 0 0 0-4.891-2.608h-21.065a5.9 5.9 0 0 0-4.892 2.606l-3.675 5.512a5.874 5.874 0 0 0-1.73 4.272v23.395a5.875 5.875 0 0 0 5.875 5.875h12.818a1.6 1.6 0 0 0 0-3.2h-12.818a2.67 2.67 0 0 1-2.671-2.671v-23.5a2.67 2.67 0 0 1 2.671-2.671h29.908a2.67 2.67 0 0 1 2.671 2.671V71.2a1.6 1.6 0 0 0 3.2 0v-6.414a5.876 5.876 0 0 0-1.73-4.166zm-29.631-4.914h21.064a2.65 2.65 0 0 1 2.136 1.2l1.346 2.008h-28.114L130.5 56.9a2.649 2.649 0 0 1 2.286-1.2z" transform="translate(-97.987 -27.002)" style="fill:url(#0x77t3ryaa)"/>
        <path data-name="Path 12367" d="M389.315 329.461a10.147 10.147 0 1 1 7.175-2.972 10.148 10.148 0 0 1-7.175 2.972zm0-17.091a6.964 6.964 0 1 0 4.9 2.04 6.942 6.942 0 0 0-4.9-2.04z" transform="translate(-331.167 -260.167)" style="fill:url(#0x77t3ryaa)"/>
        <path data-name="Path 12368" d="M455.436 387.038a1.581 1.581 0 0 1-1.132-.47l-4.273-4.273a1.6 1.6 0 0 1 2.265-2.265l4.273 4.273a1.6 1.6 0 0 1 0 2.265 1.58 1.58 0 0 1-1.132.47z" transform="translate(-395.152 -324.153)" style="fill:url(#0x77t3ryaa)"/>
        <path data-name="Path 12369" d="M450.787 387.038a1.58 1.58 0 0 1-1.132-.47 1.6 1.6 0 0 1 0-2.265l4.273-4.273a1.6 1.6 0 0 1 2.265 2.265l-4.273 4.273a1.581 1.581 0 0 1-1.133.47z" transform="translate(-394.774 -324.153)" style="fill:url(#0x77t3ryaa)"/>
    </g>
</svg>
